<?xml version="1.0" standalone="no"?>
<!DOCTYPE svg PUBLIC "-//W3C//DTD SVG 20010904//EN"
 "http://www.w3.org/TR/2001/REC-SVG-20010904/DTD/svg10.dtd">
<svg version="1.0" xmlns="http://www.w3.org/2000/svg"
 width="512.000000pt" height="512.000000pt" viewBox="0 0 512.000000 512.000000"
 preserveAspectRatio="xMidYMid meet">

<g transform="translate(0.000000,512.000000) scale(0.100000,-0.100000)"
fill="#000000" stroke="none">
<path d="M1438 5099 c-23 -12 -46 -35 -58 -59 -19 -37 -20 -58 -20 -450 0
-392 1 -413 20 -450 13 -26 34 -47 60 -60 38 -19 58 -20 505 -20 l465 0 0 530
0 530 -467 0 c-446 -1 -470 -2 -505 -21z"/>
<path d="M2710 4590 l0 -530 525 0 525 0 0 530 0 530 -525 0 -525 0 0 -530z"/>
<path d="M4060 4590 l0 -530 470 0 c452 0 472 1 510 20 26 13 47 34 60 60 19
37 20 58 20 450 0 392 -1 413 -20 450 -13 26 -34 47 -60 60 -38 19 -58 20
-510 20 l-470 0 0 -530z"/>
<path d="M78 3739 c-23 -12 -46 -35 -58 -59 -19 -37 -20 -58 -20 -445 0 -387
1 -408 20 -445 13 -26 34 -47 60 -60 38 -19 58 -20 510 -20 l470 0 0 525 0
525 -472 0 c-451 -1 -475 -2 -510 -21z"/>
<path d="M1360 3235 l0 -525 465 0 c447 0 467 1 505 20 26 13 47 34 60 60 19
37 20 58 20 445 0 387 -1 408 -20 445 -13 26 -34 47 -60 60 -38 19 -58 20
-505 20 l-465 0 0 -525z"/>
<path d="M1438 2389 c-23 -12 -46 -35 -58 -59 -19 -37 -20 -58 -20 -445 0
-387 1 -408 20 -445 13 -26 34 -47 60 -60 38 -19 58 -20 505 -20 l465 0 0 525
0 525 -467 0 c-446 -1 -470 -2 -505 -21z"/>
<path d="M2710 1885 l0 -525 525 0 525 0 0 525 0 525 -525 0 -525 0 0 -525z"/>
<path d="M4060 1885 l0 -525 470 0 c452 0 472 1 510 20 26 13 47 34 60 60 19
37 20 58 20 445 0 387 -1 408 -20 445 -13 26 -34 47 -60 60 -38 19 -58 20
-510 20 l-470 0 0 -525z"/>
<path d="M78 1039 c-23 -12 -46 -35 -58 -59 -19 -37 -20 -58 -20 -450 0 -392
1 -413 20 -450 13 -26 34 -47 60 -60 38 -19 58 -20 510 -20 l470 0 0 530 0
530 -472 0 c-451 -1 -475 -2 -510 -21z"/>
<path d="M1360 530 l0 -530 525 0 525 0 0 530 0 530 -525 0 -525 0 0 -530z"/>
<path d="M2710 530 l0 -530 465 0 c447 0 467 1 505 20 26 13 47 34 60 60 19
37 20 58 20 450 0 392 -1 413 -20 450 -13 26 -34 47 -60 60 -38 19 -58 20
-505 20 l-465 0 0 -530z"/>
</g>
</svg>
